<svg width="30" height="30" viewBox="0 0 30 30" fill="none" xmlns="http://www.w3.org/2000/svg">
<rect width="30" height="30" rx="15" fill="#57E9A3"/>
<path d="M13.78 18.598C13.78 18.094 13.81 17.656 13.87 17.284C13.942 16.9 14.056 16.546 14.212 16.222C14.368 15.898 14.578 15.586 14.842 15.286C15.118 14.986 15.46 14.662 15.868 14.314C16.252 13.99 16.522 13.684 16.678 13.396C16.834 13.108 16.912 12.796 16.912 12.46C16.912 11.872 16.72 11.392 16.336 11.02C15.952 10.636 15.46 10.444 14.86 10.444C13.648 10.444 12.952 11.2 12.772 12.712H10.756C10.792 12.052 10.918 11.464 11.134 10.948C11.35 10.42 11.632 9.976 11.98 9.616C12.34 9.244 12.766 8.962 13.258 8.77C13.75 8.566 14.296 8.464 14.896 8.464C15.484 8.464 16.024 8.566 16.516 8.77C17.02 8.974 17.452 9.256 17.812 9.616C18.172 9.976 18.454 10.408 18.658 10.912C18.862 11.404 18.964 11.938 18.964 12.514C18.964 12.814 18.934 13.096 18.874 13.36C18.814 13.612 18.712 13.864 18.568 14.116C18.436 14.356 18.256 14.602 18.028 14.854C17.8 15.106 17.524 15.382 17.2 15.682C16.912 15.934 16.678 16.162 16.498 16.366C16.318 16.57 16.174 16.78 16.066 16.996C15.97 17.212 15.898 17.446 15.85 17.698C15.814 17.95 15.796 18.25 15.796 18.598H13.78ZM13.78 19.714H15.814V22H13.78V19.714Z" fill="black"/>
</svg>
