<svg width="30" height="30" viewBox="0 0 30 30" fill="none" xmlns="http://www.w3.org/2000/svg">
<rect width="30" height="30" rx="15" fill="#EFEFEF"/>
<path fill-rule="evenodd" clip-rule="evenodd" d="M12.1134 8.03088C11.5193 8.18278 11.1075 8.61267 11.1059 9.08262C11.104 9.60575 11.9906 9.63217 12.0799 9.11167C12.0992 8.99915 12.1302 8.94594 12.2167 8.87655L12.3286 8.78686H16.5552H20.7818L20.8979 8.87997L21.0141 8.97308V13.7797V18.5864L20.9103 18.6696C20.8486 18.719 20.7549 18.7598 20.6796 18.7699C20.4437 18.8016 20.3333 18.8404 20.2478 18.9218C20.0856 19.0764 20.1017 19.3033 20.2854 19.4505C20.406 19.5472 20.5637 19.5769 20.8092 19.5491C21.3489 19.4879 21.7978 19.175 21.9508 18.7534C22.0005 18.6163 22.0049 18.137 21.9968 13.7149L21.9879 8.82794L21.8788 8.64334C21.7376 8.40443 21.4913 8.20702 21.1932 8.09384L20.9628 8.0064L16.6065 8.00117C13.1536 7.99703 12.2217 8.00319 12.1134 8.03088ZM9.17008 10.4574C8.79659 10.5012 8.37947 10.7266 8.18854 10.9877C7.98322 11.2685 7.9946 10.9415 8.00434 16.2915L8.01326 21.1785L8.12236 21.3631C8.26357 21.602 8.50989 21.7994 8.80797 21.9126L9.03829 22H13.4459H17.8536L18.0839 21.9126C18.3459 21.8131 18.6121 21.6156 18.7269 21.4356C18.9019 21.1612 18.8948 21.3807 18.8953 16.22C18.8957 10.8824 18.9115 11.2597 18.6758 10.9652C18.4503 10.6836 18.1021 10.5034 17.691 10.4558C17.4356 10.4262 9.42323 10.4277 9.17008 10.4574ZM17.6876 11.2689C17.9216 11.3579 17.9048 10.9736 17.9048 16.2469V21.026L17.7841 21.1228L17.6634 21.2195H13.4414H9.21938L9.10629 21.1289C9.02548 21.0641 8.98697 21.0035 8.97149 20.9167C8.95957 20.8498 8.95434 18.694 8.95988 16.126C8.96975 11.547 8.97125 11.4553 9.03665 11.3779C9.1709 11.219 8.95991 11.2264 13.4408 11.2252C17.1935 11.2242 17.5806 11.2282 17.6876 11.2689Z" fill="black"/>
</svg>
