<svg width="1440" height="1155" viewBox="0 0 1440 1155" fill="none" xmlns="http://www.w3.org/2000/svg">
<ellipse cx="720.124" cy="596.626" rx="526.157" ry="205.219" transform="rotate(-31.9075 720.124 596.626)" fill="#D9D9D9" fill-opacity="0.1"/>
<path d="M1309.52 230.327C1329.2 261.934 1331.56 302.314 1318.87 348.342C1306.18 394.369 1278.46 445.992 1238.07 500.009C1157.3 608.042 1025.92 725.567 863.074 826.958C700.23 928.349 536.792 994.384 404.203 1019.2C337.907 1031.6 279.35 1033.7 232.447 1024.78C185.544 1015.85 150.347 995.92 130.667 964.313C110.988 932.706 108.634 892.326 121.322 846.299C134.01 800.271 161.731 748.648 202.119 694.631C282.894 586.598 414.272 469.073 577.117 367.682C739.961 266.291 903.399 200.256 1035.99 175.442C1102.28 163.036 1160.84 160.94 1207.74 169.864C1254.65 178.788 1289.84 198.72 1309.52 230.327Z" stroke="#EFEFEF"/>
<circle cx="801" cy="249" r="5" fill="#EFEFEF"/>
<circle cx="1162" cy="441" r="5" fill="#EFEFEF"/>
<circle cx="978" cy="748" r="3" fill="#EFEFEF"/>
<circle cx="1315" cy="362" r="8" fill="#EFEFEF"/>
<circle cx="308" cy="697" r="8" fill="#EFEFEF"/>
<circle cx="186" cy="1012" r="6" fill="#EFEFEF"/>
</svg>
