<svg width="151" height="58" viewBox="0 0 151 58" fill="none" xmlns="http://www.w3.org/2000/svg">
<path d="M102.104 34.6977C102.104 39.6069 97.3222 43.585 89.4083 43.585C81.452 43.585 75.2732 39.6915 74.85 33.8513H81.0288C81.6636 36.6867 85.0069 38.5065 89.3236 38.5065C93.3441 38.5065 96.1796 36.8137 96.1796 34.5284C96.1796 27.4608 75.2308 34.6553 75.2308 21.1127C75.2308 15.9073 80.7325 12.6909 88.0117 12.6909C95.714 12.6909 101.131 16.3728 101.597 21.7475H95.4601C94.9523 19.4622 91.8205 17.6001 88.0117 17.6001C83.8642 17.6001 81.1557 19.166 81.1557 21.282C81.1557 27.8417 102.104 20.9858 102.104 34.6977ZM102.616 42.9502L117.47 13.3257H124.072L139.011 42.9502H132.409L128.897 35.9673H112.688L109.175 42.9502H102.616ZM115.396 30.5502H126.146L120.771 19.8854L115.396 30.5502ZM146.889 13.3257V42.9502H140.964V13.3257H146.889Z" fill="#EFEFEF"/>
<circle cx="33.4562" cy="5.63555" r="4.67346" transform="rotate(13.5036 33.4562 5.63555)" fill="url(#paint0_linear_814_1303)"/>
<circle cx="33.4611" cy="27.2209" r="4.67346" transform="rotate(11.4163 33.4611 27.2209)" fill="url(#paint1_linear_814_1303)"/>
<circle cx="33.4611" cy="51.9885" r="4.67346" transform="rotate(11.4163 33.4611 51.9885)" fill="url(#paint2_linear_814_1303)"/>
<rect x="23.7183" y="6.93555" width="9.34693" height="28.7852" rx="4.21852" transform="rotate(49.9275 23.7183 6.93555)" fill="url(#paint3_linear_814_1303)"/>
<rect x="50.6445" y="6.93555" width="9.34693" height="28.7852" rx="4.21852" transform="rotate(49.9275 50.6445 6.93555)" fill="url(#paint4_linear_814_1303)"/>
<rect x="23.8708" y="28.8379" width="9.34693" height="31.1944" rx="4.21852" transform="rotate(49.9275 23.8708 28.8379)" fill="url(#paint5_linear_814_1303)"/>
<rect x="54.3516" y="27.8848" width="9.34693" height="29.49" rx="4.21852" transform="rotate(49.9275 54.3516 27.8848)" fill="url(#paint6_linear_814_1303)"/>
<defs>
<linearGradient id="paint0_linear_814_1303" x1="33.4562" y1="0.962089" x2="29.1971" y2="8.19914" gradientUnits="userSpaceOnUse">
<stop stop-color="#57E9A3"/>
<stop offset="1" stop-color="#57E9A3" stop-opacity="0"/>
</linearGradient>
<linearGradient id="paint1_linear_814_1303" x1="33.4611" y1="22.5474" x2="28.7877" y2="29.0406" gradientUnits="userSpaceOnUse">
<stop stop-color="#57E9A3"/>
<stop offset="1" stop-color="#57E9A3" stop-opacity="0"/>
</linearGradient>
<linearGradient id="paint2_linear_814_1303" x1="33.4611" y1="47.315" x2="28.7877" y2="53.8082" gradientUnits="userSpaceOnUse">
<stop stop-color="#57E9A3"/>
<stop offset="1" stop-color="#57E9A3" stop-opacity="0"/>
</linearGradient>
<linearGradient id="paint3_linear_814_1303" x1="28.3917" y1="6.93555" x2="28.7767" y2="30.8042" gradientUnits="userSpaceOnUse">
<stop stop-color="#84E208"/>
<stop offset="0.0001" stop-color="#57E9A3"/>
<stop offset="1" stop-color="#57E9A3" stop-opacity="0"/>
</linearGradient>
<linearGradient id="paint4_linear_814_1303" x1="55.318" y1="6.93555" x2="56.3989" y2="28.5431" gradientUnits="userSpaceOnUse">
<stop stop-color="#57E9A3"/>
<stop offset="1" stop-color="#57E9A3" stop-opacity="0"/>
</linearGradient>
<linearGradient id="paint5_linear_814_1303" x1="28.5443" y1="28.8379" x2="29.0948" y2="55.0011" gradientUnits="userSpaceOnUse">
<stop stop-color="#57E9A3"/>
<stop offset="1" stop-color="#57E9A3" stop-opacity="0"/>
</linearGradient>
<linearGradient id="paint6_linear_814_1303" x1="59.025" y1="27.8848" x2="58.7809" y2="54.5427" gradientUnits="userSpaceOnUse">
<stop stop-color="#57E9A3"/>
<stop offset="1" stop-color="#57E9A3" stop-opacity="0"/>
</linearGradient>
</defs>
</svg>
