<svg width="1440" height="921" viewBox="0 0 1440 921" fill="none" xmlns="http://www.w3.org/2000/svg">
<path d="M2611.76 286.695C2612.38 296.419 2608.35 306.378 2599.77 316.547C2591.19 326.718 2578.09 337.062 2560.67 347.535C2525.83 368.479 2473.8 389.878 2406.37 411.415C2271.53 454.488 2075.18 498.084 1831.74 539.733C1344.86 623.031 669.701 698.528 -78.3398 746.481C-826.381 794.433 -1505.65 805.76 -1999.18 785.311C-2245.94 775.086 -2446.25 756.917 -2585.5 731.415C-2655.13 718.663 -2709.45 704.082 -2746.68 687.758C-2765.3 679.595 -2779.61 671.008 -2789.42 662.016C-2799.23 653.025 -2804.5 643.663 -2805.12 633.939C-2805.75 624.215 -2801.71 614.257 -2793.13 604.088C-2784.55 593.916 -2771.45 583.572 -2754.03 573.099C-2719.19 552.155 -2667.17 530.756 -2599.74 509.219C-2464.89 466.146 -2268.54 422.55 -2025.1 380.901C-1538.23 297.604 -863.07 222.106 -115.028 174.153C633.013 126.201 1312.29 114.874 1805.81 135.324C2052.58 145.548 2252.89 163.717 2392.13 189.219C2461.76 201.971 2516.09 216.552 2553.32 232.876C2571.93 241.039 2586.24 249.626 2596.05 258.619C2605.86 267.609 2611.13 276.971 2611.76 286.695Z" stroke="white"/>
<path d="M1841.69 329.346C1842.14 336.28 1839.26 343.397 1833.11 350.682C1826.97 357.969 1817.57 365.388 1805.07 372.904C1780.07 387.935 1742.72 403.297 1694.31 418.762C1597.49 449.689 1456.5 480.993 1281.69 510.9C932.08 570.713 447.265 624.926 -89.887 659.36C-627.039 693.794 -1114.81 701.927 -1469.19 687.243C-1646.39 679.901 -1790.22 666.854 -1890.2 648.543C-1940.19 639.387 -1979.19 628.92 -2005.91 617.204C-2019.27 611.345 -2029.53 605.186 -2036.56 598.744C-2043.59 592.303 -2047.35 585.612 -2047.79 578.678C-2048.24 571.743 -2045.36 564.627 -2039.22 557.342C-2033.07 550.054 -2023.68 542.635 -2011.17 535.119C-1986.17 520.088 -1948.82 504.726 -1900.41 489.261C-1803.59 458.335 -1662.6 427.03 -1487.79 397.123C-1138.18 337.31 -653.366 283.097 -116.214 248.663C420.937 214.23 908.706 206.096 1263.09 220.78C1440.29 228.123 1584.12 241.169 1684.1 259.48C1734.09 268.636 1773.09 279.104 1799.81 290.82C1813.17 296.678 1823.43 302.837 1830.46 309.279C1837.49 315.72 1841.25 322.412 1841.69 329.346Z" stroke="white"/>
<path d="M373.148 423.485C373.348 426.603 372.059 429.831 369.241 433.17C366.422 436.511 362.103 439.927 356.329 443.398C344.784 450.339 327.523 457.441 305.122 464.596C260.328 478.904 195.091 493.39 114.19 507.231C-47.6042 534.911 -271.977 560.001 -520.575 575.938C-769.173 591.874 -994.913 595.638 -1158.92 588.842C-1240.92 585.444 -1307.48 579.407 -1353.73 570.935C-1376.86 566.699 -1394.89 561.859 -1407.23 556.449C-1413.39 553.744 -1418.11 550.907 -1421.34 547.953C-1424.56 545.001 -1426.25 541.964 -1426.45 538.847C-1426.65 535.73 -1425.36 532.502 -1422.54 529.163C-1419.72 525.821 -1415.4 522.406 -1409.63 518.935C-1398.08 511.994 -1380.82 504.892 -1358.42 497.736C-1313.63 483.429 -1248.39 468.943 -1167.49 455.102C-1005.7 427.421 -781.324 402.331 -532.725 386.395C-284.127 370.459 -58.3876 366.695 105.617 373.49C187.622 376.888 254.176 382.926 300.43 391.397C323.561 395.634 341.587 400.474 353.925 405.884C360.094 408.589 364.814 411.425 368.037 414.379C371.257 417.331 372.948 420.368 373.148 423.485Z" stroke="white"/>
<circle cx="485" cy="704" r="4" fill="white"/>
<circle cx="981" cy="213" r="8" fill="white"/>
</svg>
