<svg width="1440" height="921" viewBox="0 0 1440 921" fill="none" xmlns="http://www.w3.org/2000/svg">
<path d="M4051.76 286.695C4052.38 296.419 4048.35 306.378 4039.77 316.547C4031.19 326.718 4018.09 337.062 4000.67 347.535C3965.83 368.479 3913.8 389.878 3846.37 411.415C3711.53 454.488 3515.18 498.084 3271.74 539.733C2784.86 623.031 2109.7 698.528 1361.66 746.481C613.619 794.433 -65.6544 805.76 -559.179 785.311C-805.944 775.086 -1006.25 756.917 -1145.5 731.415C-1215.13 718.663 -1269.45 704.082 -1306.68 687.758C-1325.3 679.595 -1339.61 671.008 -1349.42 662.016C-1359.23 653.025 -1364.5 643.663 -1365.12 633.939C-1365.75 624.215 -1361.71 614.257 -1353.13 604.088C-1344.55 593.916 -1331.45 583.572 -1314.03 573.099C-1279.19 552.155 -1227.17 530.756 -1159.74 509.219C-1024.89 466.146 -828.543 422.55 -585.103 380.901C-98.2293 297.604 576.93 222.106 1324.97 174.153C2073.01 126.201 2752.29 114.874 3245.81 135.324C3492.58 145.548 3692.89 163.717 3832.13 189.219C3901.76 201.971 3956.09 216.552 3993.32 232.876C4011.93 241.039 4026.24 249.626 4036.05 258.619C4045.86 267.609 4051.13 276.971 4051.76 286.695Z" stroke="white"/>
<path d="M3281.69 329.346C3282.14 336.28 3279.26 343.397 3273.11 350.682C3266.97 357.969 3257.57 365.388 3245.07 372.904C3220.07 387.935 3182.72 403.297 3134.31 418.762C3037.49 449.689 2896.5 480.993 2721.69 510.9C2372.08 570.713 1887.26 624.926 1350.11 659.36C812.961 693.794 325.193 701.927 -29.1923 687.243C-206.388 679.901 -350.219 666.854 -450.199 648.543C-500.192 639.387 -539.193 628.92 -565.911 617.204C-579.271 611.345 -589.533 605.186 -596.562 598.744C-603.588 592.303 -607.348 585.612 -607.793 578.678C-608.237 571.743 -605.362 564.627 -599.216 557.342C-593.068 550.054 -583.676 542.635 -571.173 535.119C-546.169 520.088 -508.825 504.726 -460.409 489.261C-363.586 458.335 -222.598 427.03 -47.7902 397.123C301.819 337.31 786.634 283.097 1323.79 248.663C1860.94 214.23 2348.71 206.096 2703.09 220.78C2880.29 228.123 3024.12 241.169 3124.1 259.48C3174.09 268.636 3213.09 279.104 3239.81 290.82C3253.17 296.678 3263.43 302.837 3270.46 309.279C3277.49 315.72 3281.25 322.412 3281.69 329.346Z" stroke="white"/>
<path d="M1813.15 423.485C1813.35 426.603 1812.06 429.831 1809.24 433.17C1806.42 436.511 1802.1 439.927 1796.33 443.398C1784.78 450.339 1767.52 457.441 1745.12 464.596C1700.33 478.904 1635.09 493.39 1554.19 507.231C1392.4 534.911 1168.02 560.001 919.425 575.938C670.827 591.874 445.087 595.638 281.083 588.842C199.077 585.444 132.524 579.407 86.2696 570.935C63.1385 566.699 45.1123 561.859 32.775 556.449C26.6055 553.744 21.8855 550.907 18.663 547.953C15.4424 545.001 13.7513 541.964 13.5515 538.847C13.3517 535.73 14.6411 532.502 17.4584 529.163C20.2773 525.821 24.5966 522.406 30.3702 518.935C41.9158 511.994 59.1764 504.892 81.5773 497.736C126.371 483.429 191.609 468.943 272.509 455.102C434.304 427.421 658.676 402.331 907.275 386.395C1155.87 370.459 1381.61 366.695 1545.62 373.49C1627.62 376.888 1694.18 382.926 1740.43 391.397C1763.56 395.634 1781.59 400.474 1793.92 405.884C1800.09 408.589 1804.81 411.425 1808.04 414.379C1811.26 417.331 1812.95 420.368 1813.15 423.485Z" stroke="white"/>
<circle cx="1382" cy="370" r="9" fill="white"/>
<circle cx="984" cy="198" r="4" fill="white"/>
<circle cx="622" cy="691" r="4" fill="white"/>
</svg>
