<svg width="1440" height="921" viewBox="0 0 1440 921" fill="none" xmlns="http://www.w3.org/2000/svg">
<g clip-path="url(#clip0_938_184)">
<path d="M5491.76 286.695C5492.38 296.418 5488.35 306.377 5479.77 316.546C5471.19 326.718 5458.09 337.062 5440.67 347.535C5405.83 368.479 5353.8 389.877 5286.37 411.415C5151.53 454.488 4955.18 498.084 4711.74 539.733C4224.86 623.03 3549.7 698.528 2801.66 746.481C2053.62 794.433 1374.35 805.76 880.821 785.31C634.056 775.085 433.745 756.917 294.501 731.415C224.875 718.663 170.545 704.082 133.317 687.758C114.701 679.595 100.389 671.008 90.5789 662.015C80.7712 653.025 75.4986 643.663 74.8752 633.939C74.2519 624.215 78.286 614.256 86.8655 604.087C95.4467 593.916 108.546 583.572 125.966 573.099C160.806 552.154 212.829 530.756 280.257 509.219C415.106 466.146 611.457 422.55 854.897 380.901C1341.77 297.603 2016.93 222.106 2764.97 174.153C3513.01 126.201 4192.29 114.874 4685.81 135.323C4932.58 145.548 5132.89 163.717 5272.13 189.219C5341.76 201.971 5396.09 216.552 5433.32 232.876C5451.93 241.039 5466.24 249.626 5476.05 258.618C5485.86 267.609 5491.13 276.971 5491.76 286.695Z" stroke="white"/>
<path d="M4721.69 329.346C4722.14 336.28 4719.26 343.397 4713.11 350.682C4706.97 357.969 4697.57 365.388 4685.07 372.904C4660.07 387.935 4622.72 403.297 4574.31 418.762C4477.49 449.689 4336.5 480.993 4161.69 510.9C3812.08 570.713 3327.26 624.926 2790.11 659.36C2252.96 693.794 1765.19 701.927 1410.81 687.243C1233.61 679.901 1089.78 666.854 989.801 648.543C939.808 639.387 900.807 628.92 874.089 617.204C860.729 611.345 850.467 605.186 843.438 598.744C836.412 592.303 832.652 585.612 832.207 578.678C831.763 571.743 834.638 564.627 840.784 557.342C846.932 550.054 856.324 542.635 868.827 535.119C893.831 520.088 931.175 504.726 979.591 489.261C1076.41 458.335 1217.4 427.03 1392.21 397.123C1741.82 337.31 2226.63 283.097 2763.79 248.663C3300.94 214.23 3788.71 206.096 4143.09 220.78C4320.29 228.123 4464.12 241.169 4564.1 259.48C4614.09 268.636 4653.09 279.104 4679.81 290.82C4693.17 296.678 4703.43 302.837 4710.46 309.279C4717.49 315.72 4721.25 322.412 4721.69 329.346Z" stroke="white"/>
<circle cx="1315" cy="411" r="8" fill="white"/>
<circle cx="283" cy="729" r="9" fill="white"/>
<circle cx="650" cy="419" r="4" fill="white"/>
</g>
<defs>
<clipPath id="clip0_938_184">
<rect width="1440" height="921" fill="white"/>
</clipPath>
</defs>
</svg>
