<svg width="1440" height="921" viewBox="0 0 1440 921" fill="none" xmlns="http://www.w3.org/2000/svg">
<path d="M1171.76 286.695C1172.38 296.419 1168.35 306.378 1159.77 316.547C1151.19 326.718 1138.09 337.062 1120.67 347.535C1085.83 368.479 1033.8 389.878 966.374 411.415C831.526 454.488 635.175 498.084 391.735 539.733C-95.1389 623.031 -770.299 698.528 -1518.34 746.481C-2266.38 794.433 -2945.65 805.76 -3439.18 785.311C-3685.94 775.086 -3886.25 756.917 -4025.5 731.415C-4095.13 718.663 -4149.45 704.082 -4186.68 687.758C-4205.3 679.595 -4219.61 671.008 -4229.42 662.016C-4239.23 653.025 -4244.5 643.663 -4245.12 633.939C-4245.75 624.215 -4241.71 614.257 -4233.13 604.088C-4224.55 593.916 -4211.45 583.572 -4194.03 573.099C-4159.19 552.155 -4107.17 530.756 -4039.74 509.219C-3904.89 466.146 -3708.54 422.55 -3465.1 380.901C-2978.23 297.604 -2303.07 222.106 -1555.03 174.153C-806.987 126.201 -127.714 114.874 365.811 135.324C612.576 145.548 812.887 163.717 952.131 189.219C1021.76 201.971 1076.09 216.552 1113.32 232.876C1131.93 241.039 1146.24 249.626 1156.05 258.619C1165.86 267.609 1171.13 276.971 1171.76 286.695Z" stroke="white"/>
<path d="M401.691 329.346C402.136 336.28 399.261 343.397 393.114 350.682C386.966 357.969 377.574 365.388 365.072 372.904C340.068 387.935 302.723 403.297 254.308 418.762C157.485 449.689 16.4967 480.993 -158.311 510.9C-507.92 570.713 -992.735 624.926 -1529.89 659.36C-2067.04 693.794 -2554.81 701.927 -2909.19 687.243C-3086.39 679.901 -3230.22 666.854 -3330.2 648.543C-3380.19 639.387 -3419.19 628.92 -3445.91 617.204C-3459.27 611.345 -3469.53 605.186 -3476.56 598.744C-3483.59 592.303 -3487.35 585.612 -3487.79 578.678C-3488.24 571.743 -3485.36 564.627 -3479.22 557.342C-3473.07 550.054 -3463.68 542.635 -3451.17 535.119C-3426.17 520.088 -3388.82 504.726 -3340.41 489.261C-3243.59 458.335 -3102.6 427.03 -2927.79 397.123C-2578.18 337.31 -2093.37 283.097 -1556.21 248.663C-1019.06 214.23 -531.294 206.096 -176.909 220.78C0.286721 228.123 144.118 241.169 244.097 259.48C294.091 268.636 333.091 279.104 359.81 290.82C373.17 296.678 383.432 302.837 390.46 309.279C397.487 315.72 401.247 322.412 401.691 329.346Z" stroke="white"/>
<circle cx="1073" cy="371" r="8" fill="white"/>
<circle cx="71" cy="466" r="4" fill="white"/>
</svg>
